<svg width="20" height="21" viewBox="0 0 20 21" fill="none" xmlns="http://www.w3.org/2000/svg">
<path d="M1.66663 10.5404H18.3333M1.66663 10.5404C1.66663 15.1427 5.39759 18.8737 9.99996 18.8737M1.66663 10.5404C1.66663 5.93799 5.39759 2.20703 9.99996 2.20703M18.3333 10.5404C18.3333 15.1427 14.6023 18.8737 9.99996 18.8737M18.3333 10.5404C18.3333 5.93799 14.6023 2.20703 9.99996 2.20703M9.99996 2.20703C12.0844 4.48899 13.2689 7.45039 13.3333 10.5404C13.2689 13.6303 12.0844 16.5917 9.99996 18.8737M9.99996 2.20703C7.91556 4.48899 6.731 7.45039 6.66663 10.5404C6.731 13.6303 7.91556 16.5917 9.99996 18.8737" stroke="#51525B" stroke-width="1.66667" stroke-linecap="round" stroke-linejoin="round"/>
</svg>
