<svg width="20" height="21" viewBox="0 0 20 21" fill="none" xmlns="http://www.w3.org/2000/svg">
<path d="M7 3.04004H3.83333C3.36662 3.04004 3.13327 3.04004 2.95501 3.13087C2.79821 3.21076 2.67072 3.33825 2.59083 3.49505C2.5 3.67331 2.5 3.90666 2.5 4.37337V7.54004C2.5 8.00675 2.5 8.2401 2.59083 8.41836C2.67072 8.57517 2.79821 8.70265 2.95501 8.78254C3.13327 8.87337 3.36662 8.87337 3.83333 8.87337H7C7.46671 8.87337 7.70007 8.87337 7.87833 8.78254C8.03513 8.70265 8.16261 8.57517 8.24251 8.41836C8.33333 8.2401 8.33333 8.00675 8.33333 7.54004V4.37337C8.33333 3.90666 8.33333 3.67331 8.24251 3.49505C8.16261 3.33825 8.03513 3.21076 7.87833 3.13087C7.70007 3.04004 7.46671 3.04004 7 3.04004Z" stroke="#3F3F45" stroke-width="1.66667" stroke-linecap="round" stroke-linejoin="round"/>
<path d="M16.1667 3.04004H13C12.5333 3.04004 12.2999 3.04004 12.1217 3.13087C11.9649 3.21076 11.8374 3.33825 11.7575 3.49505C11.6667 3.67331 11.6667 3.90666 11.6667 4.37337V7.54004C11.6667 8.00675 11.6667 8.2401 11.7575 8.41836C11.8374 8.57517 11.9649 8.70265 12.1217 8.78254C12.2999 8.87337 12.5333 8.87337 13 8.87337H16.1667C16.6334 8.87337 16.8667 8.87337 17.045 8.78254C17.2018 8.70265 17.3293 8.57517 17.4092 8.41836C17.5 8.2401 17.5 8.00675 17.5 7.54004V4.37337C17.5 3.90666 17.5 3.67331 17.4092 3.49505C17.3293 3.33825 17.2018 3.21076 17.045 3.13087C16.8667 3.04004 16.6334 3.04004 16.1667 3.04004Z" stroke="#3F3F45" stroke-width="1.66667" stroke-linecap="round" stroke-linejoin="round"/>
<path d="M16.1667 12.2067H13C12.5333 12.2067 12.2999 12.2067 12.1217 12.2975C11.9649 12.3774 11.8374 12.5049 11.7575 12.6617C11.6667 12.84 11.6667 13.0733 11.6667 13.54V16.7067C11.6667 17.1734 11.6667 17.4068 11.7575 17.585C11.8374 17.7418 11.9649 17.8693 12.1217 17.9492C12.2999 18.04 12.5333 18.04 13 18.04H16.1667C16.6334 18.04 16.8667 18.04 17.045 17.9492C17.2018 17.8693 17.3293 17.7418 17.4092 17.585C17.5 17.4068 17.5 17.1734 17.5 16.7067V13.54C17.5 13.0733 17.5 12.84 17.4092 12.6617C17.3293 12.5049 17.2018 12.3774 17.045 12.2975C16.8667 12.2067 16.6334 12.2067 16.1667 12.2067Z" stroke="#3F3F45" stroke-width="1.66667" stroke-linecap="round" stroke-linejoin="round"/>
<path d="M7 12.2067H3.83333C3.36662 12.2067 3.13327 12.2067 2.95501 12.2975C2.79821 12.3774 2.67072 12.5049 2.59083 12.6617C2.5 12.84 2.5 13.0733 2.5 13.54V16.7067C2.5 17.1734 2.5 17.4068 2.59083 17.585C2.67072 17.7418 2.79821 17.8693 2.95501 17.9492C3.13327 18.04 3.36662 18.04 3.83333 18.04H7C7.46671 18.04 7.70007 18.04 7.87833 17.9492C8.03513 17.8693 8.16261 17.7418 8.24251 17.585C8.33333 17.4068 8.33333 17.1734 8.33333 16.7067V13.54C8.33333 13.0733 8.33333 12.84 8.24251 12.6617C8.16261 12.5049 8.03513 12.3774 7.87833 12.2975C7.70007 12.2067 7.46671 12.2067 7 12.2067Z" stroke="#3F3F45" stroke-width="1.66667" stroke-linecap="round" stroke-linejoin="round"/>
</svg>
