<svg width="20" height="21" viewBox="0 0 20 21" fill="none" xmlns="http://www.w3.org/2000/svg">
<path d="M4.16675 13.0404C3.39018 13.0404 3.00189 13.0404 2.69561 12.9135C2.28723 12.7443 1.96277 12.4199 1.79362 12.0115C1.66675 11.7052 1.66675 11.3169 1.66675 10.5404V4.8737C1.66675 3.94028 1.66675 3.47357 1.8484 3.11705C2.00819 2.80344 2.26316 2.54848 2.57676 2.38869C2.93328 2.20703 3.39999 2.20703 4.33341 2.20703H10.0001C10.7767 2.20703 11.1649 2.20703 11.4712 2.3339C11.8796 2.50306 12.2041 2.82751 12.3732 3.23589C12.5001 3.54218 12.5001 3.93046 12.5001 4.70703M10.1667 18.8737H15.6667C16.6002 18.8737 17.0669 18.8737 17.4234 18.692C17.737 18.5323 17.992 18.2773 18.1518 17.9637C18.3334 17.6072 18.3334 17.1405 18.3334 16.207V10.707C18.3334 9.77361 18.3334 9.3069 18.1518 8.95038C17.992 8.63678 17.737 8.38181 17.4234 8.22202C17.0669 8.04036 16.6002 8.04036 15.6667 8.04036H10.1667C9.23333 8.04036 8.76662 8.04036 8.4101 8.22202C8.09649 8.38181 7.84153 8.63678 7.68174 8.95038C7.50008 9.3069 7.50008 9.77361 7.50008 10.707V16.207C7.50008 17.1405 7.50008 17.6072 7.68174 17.9637C7.84153 18.2773 8.09649 18.5323 8.4101 18.692C8.76662 18.8737 9.23333 18.8737 10.1667 18.8737Z" stroke="#3F3F45" stroke-width="1.66667" stroke-linecap="round" stroke-linejoin="round"/>
</svg>
