<svg width="16" height="17" viewBox="0 0 16 17" fill="none" xmlns="http://www.w3.org/2000/svg">
<path d="M8.00004 11.8734C8.00004 13.7143 9.49243 15.2067 11.3334 15.2067C13.1743 15.2067 14.6667 13.7143 14.6667 11.8734C14.6667 10.0324 13.1743 8.54004 11.3334 8.54004C9.49243 8.54004 8.00004 10.0324 8.00004 11.8734ZM8.00004 11.8734C8.00004 11.1228 8.2481 10.4302 8.66671 9.87305V3.87337M8.00004 11.8734C8.00004 12.4236 8.13336 12.9427 8.36946 13.4001C7.80782 13.8745 6.5106 14.2067 5.00004 14.2067C2.975 14.2067 1.33337 13.6098 1.33337 12.8734V3.87337M8.66671 3.87337C8.66671 4.60975 7.02508 5.20671 5.00004 5.20671C2.975 5.20671 1.33337 4.60975 1.33337 3.87337M8.66671 3.87337C8.66671 3.13699 7.02508 2.54004 5.00004 2.54004C2.975 2.54004 1.33337 3.13699 1.33337 3.87337M1.33337 9.87337C1.33337 10.6098 2.975 11.2067 5.00004 11.2067C6.45938 11.2067 7.71959 10.8967 8.3098 10.4479M8.66671 6.87337C8.66671 7.60975 7.02508 8.20671 5.00004 8.20671C2.975 8.20671 1.33337 7.60975 1.33337 6.87337" stroke="#0E9384" stroke-width="1.5" stroke-linecap="round" stroke-linejoin="round"/>
</svg>
