<svg width="157" height="150" viewBox="0 0 157 150" fill="none" xmlns="http://www.w3.org/2000/svg">
<path d="M25.983 14.9994L51.9627 0L77.9424 14.9994L51.9627 29.9988L51.9627 59.9976L25.983 44.9982L25.983 14.9994Z" fill="black"/>
<path d="M51.9573 150L25.9775 135.001L25.9775 105.002L51.9572 120.001L77.937 105.002L77.937 135.001L51.9573 150Z" fill="black"/>
<path d="M1.17804e-07 90.0022L0 60.0034L25.9797 45.004L25.9797 75.0028L51.9594 90.0022L25.9797 105.002L1.17804e-07 90.0022Z" fill="black"/>
<path d="M129.924 134.886L103.944 149.886L77.9641 134.886L103.944 119.887L103.944 89.8881L129.924 104.888V134.886Z" fill="black"/>
<path d="M103.946 0.12765L129.926 15.127V45.1258L103.946 30.1264L77.9663 45.1258V15.127L103.946 0.12765Z" fill="black"/>
<path d="M156.014 59.9483L156.014 89.9471L130.034 104.946L130.034 74.9477L104.055 59.9483L130.034 44.9489L156.014 59.9483Z" fill="black"/>
</svg>
