<svg width="187" height="28" viewBox="0 0 187 28" fill="none" xmlns="http://www.w3.org/2000/svg">
    <path d="M6.67969 3.82055L11.0127 1.27344L15.3456 3.82055L11.0127 6.36768V11.4619L6.67969 8.91482V3.82055Z" fill="white"/>
    <path d="M11.0122 26.7459L6.6792 24.1988V19.1045L11.0122 21.6516L15.3451 19.1045V24.1988L11.0122 26.7459Z" fill="white"/>
    <path d="M2.34619 16.5574V11.4631L6.67916 8.91602V14.0103L11.0121 16.5574L6.67916 19.1045L2.34619 16.5574Z" fill="white"/>
    <path d="M24.0155 24.1795L19.6826 26.7266L15.3496 24.1795L19.6826 21.6323L19.6826 16.5381L24.0155 19.0852V24.1795Z" fill="white"/>
    <path d="M19.6831 1.29541L24.0161 3.84255L24.016 8.93678L19.6831 6.38965L15.3501 8.93678V3.84255L19.6831 1.29541Z" fill="white"/>
    <path d="M28.3668 11.4539V16.5481L24.0337 19.0952V14.001L19.7007 11.4539L24.0337 8.90674L28.3668 11.4539Z" fill="white"/>
    <path d="M47.9606 22.8198L46.3675 18.0278H39.7304L38.1376 22.8198H35.3257L41.613 5.08969H44.5332L50.8206 22.8198H47.9606ZM43.0128 8.03854L40.4184 15.8162H45.6797L43.0851 8.03854H43.0128ZM55.1166 9.89387V23.4341C55.1166 26.0635 53.7771 27.3168 50.9652 27.3168C50.8448 27.3168 50.4345 27.3168 50.3619 27.2922V25.2034C50.4103 25.2034 50.6877 25.2157 50.7361 25.2157C52.0273 25.2157 52.5099 24.7242 52.5099 23.4218V9.89387H55.1166ZM53.8134 8.00169C52.9807 8.00169 52.3047 7.32591 52.3047 6.49039C52.3047 5.6426 52.9807 4.9668 53.8134 4.9668C54.6579 4.9668 55.3339 5.6426 55.3339 6.49039C55.3339 7.32591 54.6579 8.00169 53.8134 8.00169ZM63.0933 11.7983C61.2711 11.7983 59.9918 13.2114 59.859 15.165H66.2065C66.1463 13.1868 64.9154 11.7983 63.0933 11.7983ZM66.1947 19.0231H68.6683C68.3064 21.3822 66.11 23.0655 63.2019 23.0655C59.4729 23.0655 57.2162 20.4975 57.2162 16.4183C57.2162 12.3636 59.5092 9.66044 63.0933 9.66044C66.6168 9.66044 68.8133 12.1916 68.8133 16.1111V17.0203H59.8472V17.1801C59.8472 19.4286 61.1746 20.9153 63.2621 20.9153C64.7466 20.9153 65.8446 20.1535 66.1947 19.0231ZM70.8406 22.8198V9.89387H73.3266V12.0564H73.3868C74.0746 10.5819 75.4262 9.67273 77.3812 9.67273C80.1809 9.67273 81.7858 11.4912 81.7858 14.4524V22.8198H79.1673V14.9684C79.1673 13.027 78.2741 11.9581 76.464 11.9581C74.6298 11.9581 73.4473 13.2851 73.4473 15.2878V22.8198H70.8406ZM85.0682 6.83442H87.6868V9.89387H90.1005V11.995H87.6868V19.1214C87.6868 20.2395 88.1697 20.7433 89.2315 20.7433C89.4971 20.7433 89.9195 20.7187 90.0884 20.6818V22.7829C89.7988 22.8566 89.2194 22.9058 88.6402 22.9058C86.0698 22.9058 85.0682 21.9105 85.0682 19.4163V11.995H83.2219V9.89387H85.0682V6.83442ZM100.213 22.8198H97.5824V5.08969H100.032L109.058 18.163H109.155V5.08969H111.786V22.8198H109.348L100.322 9.75872H100.213V22.8198ZM120.004 11.7983C118.182 11.7983 116.903 13.2114 116.77 15.165H123.117C123.057 13.1868 121.826 11.7983 120.004 11.7983ZM123.105 19.0231H125.579C125.217 21.3822 123.021 23.0655 120.112 23.0655C116.384 23.0655 114.127 20.4975 114.127 16.4183C114.127 12.3636 116.42 9.66044 120.004 9.66044C123.528 9.66044 125.724 12.1916 125.724 16.1111V17.0203H116.758V17.1801C116.758 19.4286 118.085 20.9153 120.173 20.9153C121.657 20.9153 122.755 20.1535 123.105 19.0231ZM128.511 6.83442H131.13V9.89387H133.544V11.995H131.13V19.1214C131.13 20.2395 131.613 20.7433 132.675 20.7433C132.94 20.7433 133.363 20.7187 133.531 20.6818V22.7829C133.242 22.8566 132.663 22.9058 132.083 22.9058C129.513 22.9058 128.511 21.9105 128.511 19.4163V11.995H126.665V9.89387H128.511V6.83442ZM152.441 9.89387L148.966 22.8198H146.251L143.584 13.1376H143.523L140.881 22.8198H138.19L134.702 9.89387H137.309L139.626 20.0675H139.674L142.317 9.89387H144.827L147.482 20.0675H147.542L149.859 9.89387H152.441ZM159.416 23.0655C155.784 23.0655 153.395 20.5221 153.395 16.3568C153.395 12.2038 155.796 9.66044 159.416 9.66044C163.037 9.66044 165.438 12.2038 165.438 16.3568C165.438 20.5221 163.049 23.0655 159.416 23.0655ZM159.416 20.8784C161.468 20.8784 162.783 19.232 162.783 16.3568C162.783 13.494 161.456 11.8475 159.416 11.8475C157.377 11.8475 156.05 13.494 156.05 16.3568C156.05 19.232 157.377 20.8784 159.416 20.8784ZM167.453 22.8198V9.89387H169.939V12.0932H170C170.422 10.5819 171.556 9.68499 173.053 9.68499C173.427 9.68499 173.753 9.74642 173.946 9.7833V12.253C173.741 12.167 173.282 12.1055 172.775 12.1055C171.098 12.1055 170.06 13.2482 170.06 15.079V22.8198H167.453ZM178.29 15.4353L183.419 9.89387H186.484L181.223 15.4599L186.689 22.8198H183.66L179.352 17.0818L178.266 18.1753V22.8198H175.659V5.08969H178.266V15.4353H178.29Z" fill="white"/>
</svg>
