<svg width="223" height="157" viewBox="0 0 223 157" fill="none" xmlns="http://www.w3.org/2000/svg">
<path d="M80.8127 13.0639L96.1374 4.2162L111.462 13.0639L96.1374 21.9116L96.1374 39.607L80.8127 30.7593L80.8127 13.0639Z" fill="white"/>
<path d="M96.1343 92.6969L80.8097 83.8492L80.8097 66.1538L96.1343 75.0015L111.459 66.1538L111.459 83.8492L96.1343 92.6969Z" fill="white"/>
<path d="M65.4861 57.3061L65.4861 39.6107L80.8108 30.763L80.8108 48.4584L96.1355 57.3061L80.8108 66.1538L65.4861 57.3061Z" fill="white"/>
<path d="M142.123 83.7817L126.798 92.6294L111.473 83.7817L126.798 74.934L126.798 57.2386L142.123 66.0863L142.123 83.7817Z" fill="white"/>
<path d="M126.801 4.29165L142.126 13.1394L142.126 30.8348L126.801 21.9871L111.477 30.8348L111.477 13.1394L126.801 4.29165Z" fill="white"/>
<path d="M157.514 39.5781L157.514 57.2735L142.189 66.1212L142.189 48.4258L126.865 39.5781L142.189 30.7304L157.514 39.5781Z" fill="white"/>
<path d="M18.9692 150.208L16.6356 143.313H6.91235L4.57877 150.208H0.459645L9.67022 124.697H13.9485L23.159 150.208H18.9692ZM11.7209 128.94L7.92003 140.131H15.6279L11.827 128.94H11.7209ZM29.4526 131.61V151.092C29.4526 154.875 27.4903 156.678 23.3712 156.678C23.1944 156.678 22.5933 156.678 22.4872 156.643V153.637C22.558 153.637 22.9646 153.655 23.0353 153.655C24.9269 153.655 25.634 152.948 25.634 151.074V131.61H29.4526ZM27.5433 128.887C26.3235 128.887 25.3335 127.915 25.3335 126.713C25.3335 125.493 26.3235 124.521 27.5433 124.521C28.7808 124.521 29.7708 125.493 29.7708 126.713C29.7708 127.915 28.7808 128.887 27.5433 128.887ZM41.1382 134.35C38.4687 134.35 36.5948 136.383 36.4003 139.194H45.6993C45.6109 136.348 43.8077 134.35 41.1382 134.35ZM45.6816 144.745H49.3057C48.7754 148.139 45.5579 150.561 41.2973 150.561C35.8346 150.561 32.5287 146.866 32.5287 140.997C32.5287 135.163 35.8876 131.274 41.1382 131.274C46.3004 131.274 49.5179 134.916 49.5179 140.555V141.863H36.3827V142.093C36.3827 145.328 38.3273 147.467 41.3857 147.467C43.5602 147.467 45.1689 146.371 45.6816 144.745ZM52.4879 150.208V131.61H56.1297V134.721H56.2181C57.2258 132.6 59.2058 131.291 62.0697 131.291C66.1712 131.291 68.5224 133.908 68.5224 138.168V150.208H64.6862V138.911C64.6862 136.118 63.3779 134.58 60.7261 134.58C58.039 134.58 56.3065 136.489 56.3065 139.371V150.208H52.4879ZM73.331 127.208H77.1673V131.61H80.703V134.633H77.1673V144.886C77.1673 146.495 77.8744 147.22 79.4302 147.22C79.8191 147.22 80.4378 147.185 80.6853 147.132V150.155C80.2611 150.261 79.4125 150.331 78.5639 150.331C74.7984 150.331 73.331 148.899 73.331 145.311V134.633H70.6262V131.61H73.331V127.208ZM95.5177 150.208H91.6638V124.697H95.2525L108.476 143.507H108.618V124.697H112.472V150.208H108.9L95.6768 131.415H95.5177V150.208ZM124.511 134.35C121.841 134.35 119.967 136.383 119.773 139.194H129.072C128.983 136.348 127.18 134.35 124.511 134.35ZM129.054 144.745H132.678C132.148 148.139 128.93 150.561 124.67 150.561C119.207 150.561 115.901 146.866 115.901 140.997C115.901 135.163 119.26 131.274 124.511 131.274C129.673 131.274 132.89 134.916 132.89 140.555V141.863H119.755V142.093C119.755 145.328 121.7 147.467 124.758 147.467C126.933 147.467 128.541 146.371 129.054 144.745ZM136.974 127.208H140.81V131.61H144.346V134.633H140.81V144.886C140.81 146.495 141.518 147.22 143.073 147.22C143.462 147.22 144.081 147.185 144.328 147.132V150.155C143.904 150.261 143.056 150.331 142.207 150.331C138.441 150.331 136.974 148.899 136.974 145.311V134.633H134.269V131.61H136.974V127.208ZM172.031 131.61L166.939 150.208H162.962L159.055 136.277H158.966L155.095 150.208H151.152L146.043 131.61H149.862L153.256 146.248H153.327L157.199 131.61H160.876L164.765 146.248H164.853L168.248 131.61H172.031ZM182.249 150.561C176.928 150.561 173.428 146.902 173.428 140.909C173.428 134.933 176.946 131.274 182.249 131.274C187.553 131.274 191.071 134.933 191.071 140.909C191.071 146.902 187.57 150.561 182.249 150.561ZM182.249 147.414C185.255 147.414 187.181 145.045 187.181 140.909C187.181 136.79 185.237 134.421 182.249 134.421C179.261 134.421 177.317 136.79 177.317 140.909C177.317 145.045 179.261 147.414 182.249 147.414ZM194.023 150.208V131.61H197.665V134.774H197.753C198.372 132.6 200.034 131.309 202.226 131.309C202.774 131.309 203.251 131.398 203.534 131.451V135.004C203.234 134.88 202.562 134.792 201.819 134.792C199.362 134.792 197.842 136.436 197.842 139.07V150.208H194.023ZM209.899 139.583L217.412 131.61H221.902L214.194 139.618L222.203 150.208H217.766L211.454 141.952L209.863 143.525V150.208H206.045V124.697H209.863V139.583H209.899Z" fill="white"/>
</svg>
