<svg width="679" height="100" viewBox="0 0 679 100" fill="none" xmlns="http://www.w3.org/2000/svg">
<path d="M23.7629 13.6453L39.5191 4.54846L55.2754 13.6453L39.5192 22.7422L39.5191 40.936L23.7629 31.8391L23.7629 13.6453Z" fill="black"/>
<path d="M39.5172 95.5209L23.7609 86.424L23.7609 68.2302L39.5172 77.3271L55.2735 68.2302L55.2735 86.424L39.5172 95.5209Z" fill="black"/>
<path d="M8.00469 59.1332L8.00469 40.9395L23.7609 31.8426L23.7609 50.0363L39.5172 59.1332L23.7609 68.2301L8.00469 59.1332Z" fill="black"/>
<path d="M86.8016 86.3547L71.0453 95.4515L55.2891 86.3547L71.0453 77.2578L71.0453 59.064L86.8016 68.1609L86.8016 86.3547Z" fill="black"/>
<path d="M71.0473 4.62588L86.8035 13.7228L86.8035 31.9165L71.0473 22.8196L55.291 31.9165L55.291 13.7228L71.0473 4.62588Z" fill="black"/>
<path d="M102.624 40.9061L102.624 59.0998L86.868 68.1967L86.868 50.003L71.1117 40.9061L86.868 31.8092L102.624 40.9061Z" fill="black"/>
<path d="M173.874 81.5L168.082 64.386H143.947L138.155 81.5H127.93L150.793 18.1783H161.412L184.274 81.5H173.874ZM155.883 28.7099L146.448 56.4873H165.581L156.146 28.7099H155.883ZM199.896 35.3361V83.6941C199.896 93.0849 195.026 97.5608 184.801 97.5608C184.362 97.5608 182.87 97.5608 182.607 97.4731V90.0131C182.783 90.0131 183.792 90.057 183.967 90.057C188.663 90.057 190.418 88.3017 190.418 83.6502V35.3361H199.896ZM195.157 28.5783C192.129 28.5783 189.672 26.1648 189.672 23.1808C189.672 20.153 192.129 17.7394 195.157 17.7394C198.229 17.7394 200.686 20.153 200.686 23.1808C200.686 26.1648 198.229 28.5783 195.157 28.5783ZM228.902 42.1378C222.276 42.1378 217.625 47.1843 217.142 54.1615H240.224C240.005 47.0965 235.529 42.1378 228.902 42.1378ZM240.18 67.9405H249.176C247.86 76.3658 239.873 82.3776 229.297 82.3776C215.738 82.3776 207.532 73.2063 207.532 58.6375C207.532 44.1564 215.87 34.5024 228.902 34.5024C241.716 34.5024 249.703 43.5421 249.703 57.5404V60.7877H217.098V61.3582C217.098 69.3886 221.925 74.6983 229.517 74.6983C234.914 74.6983 238.908 71.9776 240.18 67.9405ZM257.075 81.5V35.3361H266.114V43.0594H266.334C268.835 37.7935 273.75 34.5463 280.859 34.5463C291.039 34.5463 296.876 41.0408 296.876 51.6164V81.5H287.353V53.4594C287.353 46.526 284.106 42.7083 277.524 42.7083C270.854 42.7083 266.553 47.4476 266.553 54.6003V81.5H257.075ZM308.812 24.4095H318.334V35.3361H327.11V42.84H318.334V68.2915C318.334 72.2848 320.089 74.0839 323.951 74.0839C324.916 74.0839 326.452 73.9962 327.067 73.8645V81.3684C326.013 81.6316 323.907 81.8072 321.801 81.8072C312.454 81.8072 308.812 78.2527 308.812 69.3447V42.84H302.098V35.3361H308.812V24.4095ZM363.884 81.5H354.317V18.1783H363.225L396.049 64.8687H396.4V18.1783H405.966V81.5H397.102L364.278 34.8534H363.884V81.5ZM435.85 42.1378C429.224 42.1378 424.572 47.1843 424.09 54.1615H447.172C446.952 47.0965 442.476 42.1378 435.85 42.1378ZM447.128 67.9405H456.124C454.807 76.3658 446.821 82.3776 436.245 82.3776C422.685 82.3776 414.48 73.2063 414.48 58.6375C414.48 44.1564 422.817 34.5024 435.85 34.5024C448.664 34.5024 456.65 43.5421 456.65 57.5404V60.7877H424.046V61.3582C424.046 69.3886 428.873 74.6983 436.464 74.6983C441.862 74.6983 445.855 71.9776 447.128 67.9405ZM466.787 24.4095H476.309V35.3361H485.086V42.84H476.309V68.2915C476.309 72.2848 478.065 74.0839 481.926 74.0839C482.892 74.0839 484.427 73.9962 485.042 73.8645V81.3684C483.989 81.6316 481.882 81.8072 479.776 81.8072C470.429 81.8072 466.787 78.2527 466.787 69.3447V42.84H460.073V35.3361H466.787V24.4095ZM553.805 35.3361L541.167 81.5H531.293L521.596 46.921H521.376L511.766 81.5H501.98L489.298 35.3361H498.777L507.202 71.6704H507.378L516.988 35.3361H526.115L535.769 71.6704H535.989L544.414 35.3361H553.805ZM579.169 82.3776C565.96 82.3776 557.272 73.2941 557.272 58.4181C557.272 43.5859 566.004 34.5024 579.169 34.5024C592.333 34.5024 601.066 43.5859 601.066 58.4181C601.066 73.2941 592.377 82.3776 579.169 82.3776ZM579.169 74.5666C586.629 74.5666 591.412 68.6865 591.412 58.4181C591.412 48.1936 586.585 42.3134 579.169 42.3134C571.753 42.3134 566.926 48.1936 566.926 58.4181C566.926 68.6865 571.753 74.5666 579.169 74.5666ZM608.394 81.5V35.3361H617.434V43.191H617.653C619.189 37.7935 623.314 34.5901 628.755 34.5901C630.116 34.5901 631.301 34.8095 632.003 34.9412V43.7615C631.257 43.4543 629.589 43.2349 627.746 43.2349C621.646 43.2349 617.873 47.3159 617.873 53.8543V81.5H608.394ZM647.8 55.1269L666.45 35.3361H677.596L658.463 55.2147L678.342 81.5H667.328L651.662 61.0071L647.712 64.9126V81.5H638.234V18.1783H647.712V55.1269H647.8Z" fill="black"/>
</svg>
