<svg width="680" height="100" viewBox="0 0 680 100" fill="none" xmlns="http://www.w3.org/2000/svg">
<path d="M24.2902 13.6453L40.0465 4.54846L55.8027 13.6453L40.0465 22.7422L40.0465 40.936L24.2902 31.8391L24.2902 13.6453Z" fill="white"/>
<path d="M40.0445 95.5209L24.2883 86.424L24.2883 68.2302L40.0445 77.3271L55.8008 68.2302L55.8008 86.424L40.0445 95.5209Z" fill="white"/>
<path d="M8.53204 59.1332L8.53204 40.9395L24.2883 31.8426L24.2883 50.0363L40.0445 59.1332L24.2883 68.2301L8.53204 59.1332Z" fill="white"/>
<path d="M87.3289 86.3547L71.5726 95.4515L55.8164 86.3547L71.5726 77.2578L71.5727 59.064L87.3289 68.1609L87.3289 86.3547Z" fill="white"/>
<path d="M71.5746 4.62588L87.3309 13.7228L87.3308 31.9165L71.5746 22.8196L55.8183 31.9165L55.8183 13.7228L71.5746 4.62588Z" fill="white"/>
<path d="M103.152 40.9061L103.152 59.0998L87.3953 68.1967L87.3953 50.003L71.639 40.9061L87.3953 31.8092L103.152 40.9061Z" fill="white"/>
<path d="M174.402 81.5L168.609 64.386H144.474L138.682 81.5H128.457L151.32 18.1783H161.939L184.802 81.5H174.402ZM156.41 28.7099L146.976 56.4873H166.108L156.673 28.7099H156.41ZM200.424 35.3361V83.6941C200.424 93.0849 195.553 97.5608 185.328 97.5608C184.89 97.5608 183.398 97.5608 183.134 97.4731V90.0131C183.31 90.0131 184.319 90.057 184.495 90.057C189.19 90.057 190.945 88.3017 190.945 83.6502V35.3361H200.424ZM195.685 28.5783C192.657 28.5783 190.199 26.1648 190.199 23.1808C190.199 20.153 192.657 17.7394 195.685 17.7394C198.756 17.7394 201.214 20.153 201.214 23.1808C201.214 26.1648 198.756 28.5783 195.685 28.5783ZM229.43 42.1378C222.804 42.1378 218.152 47.1843 217.669 54.1615H240.751C240.532 47.0965 236.056 42.1378 229.43 42.1378ZM240.708 67.9405H249.703C248.387 76.3658 240.4 82.3776 229.825 82.3776C216.265 82.3776 208.059 73.2063 208.059 58.6375C208.059 44.1564 216.397 34.5024 229.43 34.5024C242.243 34.5024 250.23 43.5421 250.23 57.5404V60.7877H217.626V61.3582C217.626 69.3886 222.453 74.6983 230.044 74.6983C235.442 74.6983 239.435 71.9776 240.708 67.9405ZM257.602 81.5V35.3361H266.642V43.0594H266.861C269.362 37.7935 274.277 34.5463 281.386 34.5463C291.567 34.5463 297.403 41.0408 297.403 51.6164V81.5H287.881V53.4594C287.881 46.526 284.633 42.7083 278.051 42.7083C271.381 42.7083 267.081 47.4476 267.081 54.6003V81.5H257.602ZM309.339 24.4095H318.861V35.3361H327.638V42.84H318.861V68.2915C318.861 72.2848 320.617 74.0839 324.478 74.0839C325.444 74.0839 326.98 73.9962 327.594 73.8645V81.3684C326.541 81.6316 324.434 81.8072 322.328 81.8072C312.981 81.8072 309.339 78.2527 309.339 69.3447V42.84H302.625V35.3361H309.339V24.4095ZM364.411 81.5H354.845V18.1783H363.753L396.576 64.8687H396.927V18.1783H406.494V81.5H397.63L364.806 34.8534H364.411V81.5ZM436.377 42.1378C429.751 42.1378 425.1 47.1843 424.617 54.1615H447.699C447.48 47.0965 443.004 42.1378 436.377 42.1378ZM447.655 67.9405H456.651C455.334 76.3658 447.348 82.3776 436.772 82.3776C423.213 82.3776 415.007 73.2063 415.007 58.6375C415.007 44.1564 423.344 34.5024 436.377 34.5024C449.191 34.5024 457.177 43.5421 457.177 57.5404V60.7877H424.573V61.3582C424.573 69.3886 429.4 74.6983 436.992 74.6983C442.389 74.6983 446.382 71.9776 447.655 67.9405ZM467.314 24.4095H476.837V35.3361H485.613V42.84H476.837V68.2915C476.837 72.2848 478.592 74.0839 482.454 74.0839C483.419 74.0839 484.955 73.9962 485.569 73.8645V81.3684C484.516 81.6316 482.41 81.8072 480.303 81.8072C470.956 81.8072 467.314 78.2527 467.314 69.3447V42.84H460.6V35.3361H467.314V24.4095ZM554.332 35.3361L541.694 81.5H531.821L522.123 46.921H521.903L512.293 81.5H502.508L489.826 35.3361H499.304L507.73 71.6704H507.905L517.515 35.3361H526.643L536.297 71.6704H536.516L544.941 35.3361H554.332ZM579.696 82.3776C566.488 82.3776 557.799 73.2941 557.799 58.4181C557.799 43.5859 566.531 34.5024 579.696 34.5024C592.861 34.5024 601.593 43.5859 601.593 58.4181C601.593 73.2941 592.905 82.3776 579.696 82.3776ZM579.696 74.5666C587.156 74.5666 591.939 68.6865 591.939 58.4181C591.939 48.1936 587.112 42.3134 579.696 42.3134C572.28 42.3134 567.453 48.1936 567.453 58.4181C567.453 68.6865 572.28 74.5666 579.696 74.5666ZM608.921 81.5V35.3361H617.961V43.191H618.181C619.716 37.7935 623.841 34.5901 629.283 34.5901C630.643 34.5901 631.828 34.8095 632.53 34.9412V43.7615C631.784 43.4543 630.116 43.2349 628.273 43.2349C622.174 43.2349 618.4 47.3159 618.4 53.8543V81.5H608.921ZM648.327 55.1269L666.977 35.3361H678.123L658.991 55.2147L678.869 81.5H667.855L652.189 61.0071L648.24 64.9126V81.5H638.761V18.1783H648.24V55.1269H648.327Z" fill="white"/>
</svg>
